Coordinates
version=1
nRows=10
nColumns=33
inDegrees=yes

Units are S.I. units (second, meters, Newtons, ...)
Angles are in degrees.

endheader
time	ground_thorax_rot_x	ground_thorax_rot_y	ground_thorax_rot_z	ground_thorax_tx	ground_thorax_ty	ground_thorax_tz	clav_prot_r	clav_elev_r	scapula_abduction_r	scapula_elevation_r	scapula_upward_rot_r	scapula_winging_r	shoulder_elv_r	plane_of_elev_r	axial_rot_r	elbow_flexion_r	pro_sup_r	wrist_flex_r	wrist_dev_r	clav_prot_l	clav_elev_l	scapula_abduction_l	scapula_elevation_l	scapula_upward_rot_l	scapula_winging_l	shoulder_elv_l	plane_of_elev_l	axial_rot_l	elbow_flexion_l	pro_sup_l	wrist_flex_l	wrist_dev_l
      9.90000000	    -37.95535166	      5.80219762	     -8.30275462	     56.45987911	    796.33785822	    -45.52906241	      9.36048519	    -45.00000000	     45.00000000	    -45.00000000	      9.69549547	    269.13347163	  -1911.44110545	    159.01316130	      6.85798595	   1798.79140447	    178.84003463	     14.14042600	     14.75701613	     18.26692767	     28.54549176	    -45.00000000	    -45.00000000	    -45.00000000	   4030.33964506	  -7098.97757707	     22.58802583	   -179.99999979	   1787.88955739	   -298.09645372	      5.42475885	     -4.88644672
      9.91000000	    -38.01365598	      5.88314973	     -8.32710029	     58.81851250	    794.75161507	    -45.30286133	      9.24080353	    -45.00000000	     45.00000000	    -45.00000000	      9.84360378	    269.34890253	  -1911.58829198	    159.10015136	      7.00894750	   1798.83246240	    179.52223296	     14.15473497	     14.68813712	     18.40424624	     28.47083629	    -45.00000000	    -45.00000000	    -45.00000000	   4030.11423013	  -7098.92539477	     22.59439688	   -179.99999979	   1788.19719621	   -295.61494593	      5.66577044	     -4.85578527
      9.92000000	    -38.03072682	      5.95924107	     -8.36472828	     61.11978680	    793.17157316	    -45.05789573	      9.17450043	    -45.00000000	     45.00000000	    -45.00000000	      9.95150895	    269.61496026	  -1911.65403934	    159.16117037	      7.15887096	   1798.90531104	    180.12987810	     14.15922160	     14.60310813	     18.58572329	     28.41908924	    -45.00000000	    -45.00000000	    -45.00000000	   4029.87544407	  -7098.92778364	     22.59874397	   -179.99999979	   1788.51023726	   -293.09314980	      5.91560481	     -4.83937425
      9.93000000	    -38.17258557	      5.80262978	     -8.05097636	     63.36513539	    791.61138923	    -44.79447784	      9.68195817	    -45.00000000	     45.00000000	    -45.00000000	      9.79738329	    269.60559308	  -1911.90588395	    159.11904616	      7.22340206	   1799.05726042	    180.57098875	     14.13827714	     14.58968723	     18.70422236	     28.33812279	    -45.00000000	    -45.00000000	    -45.00000000	   4029.74543140	  -7099.13308262	     22.60581917	   -179.99999979	   1788.76622579	   -290.89267071	      5.97418204	     -4.58272778
      9.94000000	    -38.10805632	      6.05496351	     -8.35999980	     65.55566272	    790.08287657	    -44.51521423	      8.95132862	    -45.00000000	     45.00000000	    -45.00000000	     10.24582605	    270.07903745	  -1911.91452748	    159.38416924	      7.61116757	   1799.06629500	    181.11666000	     14.17124277	     14.43252161	     18.89863672	     28.30050506	    -45.00000000	    -45.00000000	    -45.00000000	   4029.42525412	  -7098.94649035	     22.57810892	   -179.99999979	   1789.17596522	   -287.98529013	      6.45014130	     -4.92303923
      9.95000000	    -38.13640097	      6.07528566	     -8.28414779	     67.68787843	    788.59858715	    -44.22422385	      8.70509829	    -45.00000000	     45.00000000	    -45.00000000	     10.36783663	    270.27297307	  -1912.02222075	    159.51929925	      7.93803608	   1799.15177548	    181.52390271	     14.17697217	     14.30759935	     18.99152834	     28.20395051	    -45.00000000	    -45.00000000	    -45.00000000	   4029.18035472	  -7098.97578706	     22.54410149	   -179.99999979	   1789.57294168	   -284.73697610	      6.79943397	     -5.03345421
      9.96000000	    -38.19435343	      6.04320910	     -8.15624132	     69.75667338	    787.16746866	    -43.92757119	      9.02230846	    -45.00000000	     45.00000000	    -45.00000000	     10.16534721	    270.40754641	  -1912.19364176	    159.49339933	      8.12454187	   1799.25070004	    181.70953103	     14.15957922	     14.29997829	     19.13652632	     28.18284547	    -45.00000000	    -45.00000000	    -45.00000000	   4029.00470485	  -7099.03568912	     22.54515246	   -179.99999979	   1789.95967557	   -281.84199691	      7.03352818	     -5.03631773
      9.97000000	    -38.30641881	      5.62045183	     -7.45523079	     71.75778855	    785.79275021	    -43.63137073	      9.52438500	    -45.00000000	     45.00000000	    -45.00000000	      9.67072100	    270.34223781	  -1912.36583010	    159.49740036	      8.38361117	   1799.51673826	    181.78686278	     14.08485797	     14.24535967	     19.10599391	     28.01668196	    -45.00000000	    -45.00000000	    -45.00000000	   4028.80199662	  -7099.57970976	     22.47959097	   -179.99999979	   1790.29060759	   -279.42530078	      7.13104955	     -4.79662711
      9.98000000	    -38.18669196	      6.04457572	     -7.96371962	     73.67972238	    784.47791848	    -43.34330562	      8.70406269	    -45.00000000	     45.00000000	    -45.00000000	     10.37453385	    270.81383716	  -1912.33101818	    159.78351641	      8.92596989	   1799.49542514	    181.80050252	     14.13305003	     14.02198853	     19.36514665	     28.09318168	    -45.00000000	    -45.00000000	    -45.00000000	   4028.54465589	  -7099.13212123	     22.46215828	   -179.99999979	   1790.71331178	   -275.64420163	      7.69622866	     -5.48538110
      9.99000000	    -38.25860678	      5.92966195	     -7.59380928	     75.51918194	    783.21746089	    -43.06863322	      8.79841689	    -45.00000000	     45.00000000	    -45.00000000	     10.06821570	    270.90276222	  -1912.43762403	    159.96071912	      9.27592789	   1799.52680438	    181.64564828	     14.13622326	     13.88732944	     19.43323410	     28.02785274	    -45.00000000	    -45.00000000	    -45.00000000	   4028.29399365	  -7099.23966957	     22.39242655	   -179.99999979	   1791.17038366	   -272.22371488	      7.98258912	     -5.64584295
